<svg xmlns="http://www.w3.org/2000/svg" width="92.536" height="89.355" viewBox="0 0 92.536 89.355">
  <g id="github" transform="translate(-1082.464 -818.263)">
    <g id="Group_9" data-name="Group 9">
      <path id="Polygon_3" data-name="Polygon 3" d="M51.525,0a3,3,0,0,1,2.593,1.491l16,27.5a3,3,0,0,1,0,3.018l-16,27.5A3,3,0,0,1,51.525,61H19.475a3,3,0,0,1-2.593-1.491l-16-27.5a3,3,0,0,1,0-3.018l16-27.5A3,3,0,0,1,19.475,0Z" transform="matrix(0.848, 0.53, -0.53, 0.848, 1114.789, 818.263)" fill="#1d524c"/>
    </g>
    <path id="icons8_github_1" d="M22.059,4a18.061,18.061,0,0,0-5.708,35.2c.905.165,1.235-.388,1.235-.87,0-.429-.018-1.564-.023-3.069-5.026,1.088-6.084-2.422-6.084-2.422a4.809,4.809,0,0,0-2-2.646C7.833,29.073,9.6,29.1,9.6,29.1a3.793,3.793,0,0,1,2.763,1.858,3.848,3.848,0,0,0,5.256,1.5,3.886,3.886,0,0,1,1.146-2.416c-4.009-.453-8.224-2-8.224-8.924a7,7,0,0,1,1.858-4.85,6.515,6.515,0,0,1,.176-4.779s1.517-.482,4.967,1.852a17.18,17.18,0,0,1,9.041,0c3.451-2.334,4.962-1.852,4.962-1.852a6.464,6.464,0,0,1,.182,4.779,6.969,6.969,0,0,1,1.852,4.85c0,6.937-4.221,8.459-8.242,8.912a4.3,4.3,0,0,1,1.223,3.339c0,2.416-.018,4.362-.018,4.956,0,.482.323,1.046,1.24.87A18.063,18.063,0,0,0,22.059,4Z" transform="translate(1106.672 839.451)" fill="#fff" fill-rule="evenodd"/>
  </g>
</svg>
