<svg xmlns="http://www.w3.org/2000/svg" xmlns:xlink="http://www.w3.org/1999/xlink" width="336.538" height="493.471" viewBox="0 0 336.538 493.471"><defs><filter id="a" x="0" y="0" width="336.538" height="493.471" filterUnits="userSpaceOnUse"><feOffset dx="12" dy="3" input="SourceAlpha"/><feGaussianBlur stdDeviation="3" result="b"/><feFlood flood-opacity="0.6"/><feComposite operator="in" in2="b"/><feComposite in="SourceGraphic"/></filter><filter id="c" x="0" y="0" width="336.538" height="493.471" filterUnits="userSpaceOnUse"><feOffset dx="12" dy="3" input="SourceAlpha"/><feGaussianBlur stdDeviation="3" result="d"/><feFlood flood-color="#fff" flood-opacity="0.722" result="e"/><feComposite operator="out" in="SourceGraphic" in2="d"/><feComposite operator="in" in="e"/><feComposite operator="in" in2="SourceGraphic"/></filter></defs><g data-type="innerShadowGroup"><g transform="matrix(1, 0, 0, 1, 0, 0)" filter="url(#a)"><path d="M205.177,481.471H132.361C65.612,481.471,11,422.037,11,349.4H59.544c0,43.585,32.767,79.245,72.817,79.245h72.817c40.049,0,72.817-35.66,72.817-79.245V336.188c0-43.585-32.767-79.245-72.817-79.245H120.225C59.544,256.943,11,204.113,11,138.075V124.868C11,58.83,59.544,6,120.225,6h72.817C259.79,6,314.4,65.434,314.4,138.075H265.858c0-43.585-32.767-79.245-72.817-79.245H120.225c-33.981,0-60.68,29.057-60.68,66.038v13.208c0,36.981,26.7,66.038,60.68,66.038h84.953c66.749,0,121.361,59.434,121.361,132.075V349.4C326.538,422.037,271.926,481.471,205.177,481.471Z" transform="translate(-11)" fill="#ff9429"/></g><g transform="matrix(1, 0, 0, 1, 0, 0)" filter="url(#c)"><path d="M205.177,481.471H132.361C65.612,481.471,11,422.037,11,349.4H59.544c0,43.585,32.767,79.245,72.817,79.245h72.817c40.049,0,72.817-35.66,72.817-79.245V336.188c0-43.585-32.767-79.245-72.817-79.245H120.225C59.544,256.943,11,204.113,11,138.075V124.868C11,58.83,59.544,6,120.225,6h72.817C259.79,6,314.4,65.434,314.4,138.075H265.858c0-43.585-32.767-79.245-72.817-79.245H120.225c-33.981,0-60.68,29.057-60.68,66.038v13.208c0,36.981,26.7,66.038,60.68,66.038h84.953c66.749,0,121.361,59.434,121.361,132.075V349.4C326.538,422.037,271.926,481.471,205.177,481.471Z" transform="translate(-11)" fill="#fff"/></g></g></svg>