<svg xmlns="http://www.w3.org/2000/svg" width="92.536" height="89.355" viewBox="0 0 92.536 89.355">
  <g id="instagram" transform="translate(-1175.464 -818.263)">
    <path id="Polygon_1" data-name="Polygon 1" d="M51.525,0a3,3,0,0,1,2.593,1.491l16,27.5a3,3,0,0,1,0,3.018l-16,27.5A3,3,0,0,1,51.525,61H19.475a3,3,0,0,1-2.593-1.491l-16-27.5a3,3,0,0,1,0-3.018l16-27.5A3,3,0,0,1,19.475,0Z" transform="matrix(0.848, 0.53, -0.53, 0.848, 1207.789, 818.263)" fill="#1d524c"/>
    <path id="icons8_instagram_logo_4" d="M14.735,5A9.774,9.774,0,0,0,5,14.735V28.374a9.774,9.774,0,0,0,9.735,9.735H28.374a9.774,9.774,0,0,0,9.735-9.735V14.735A9.774,9.774,0,0,0,28.374,5Zm0,3.01H28.374A6.716,6.716,0,0,1,35.1,14.735V28.374A6.716,6.716,0,0,1,28.374,35.1H14.735A6.716,6.716,0,0,1,8.01,28.374V14.735A6.716,6.716,0,0,1,14.735,8.01ZM30.443,11.3a1.364,1.364,0,1,0,1.364,1.364A1.357,1.357,0,0,0,30.443,11.3Zm-8.889,1.223a9.03,9.03,0,1,0,9.03,9.03A9.055,9.055,0,0,0,21.554,12.525Zm0,3.01a6.02,6.02,0,1,1-6.02,6.02A5.994,5.994,0,0,1,21.554,15.535Z" transform="translate(1200.177 841.387)" fill="#fff"/>
  </g>
</svg>
