<svg xmlns="http://www.w3.org/2000/svg" width="92.536" height="89.355" viewBox="0 0 92.536 89.355">
  <g id="telegram" transform="translate(-881.464 -818.263)">
    <g id="Group_7" data-name="Group 7">
      <path id="Polygon_5" data-name="Polygon 5" d="M51.525,0a3,3,0,0,1,2.593,1.491l16,27.5a3,3,0,0,1,0,3.018l-16,27.5A3,3,0,0,1,51.525,61H19.475a3,3,0,0,1-2.593-1.491l-16-27.5a3,3,0,0,1,0-3.018l16-27.5A3,3,0,0,1,19.475,0Z" transform="matrix(0.848, 0.53, -0.53, 0.848, 913.789, 818.263)" fill="#1d524c"/>
    </g>
    <path id="icons8_telegram_app_1" d="M38.224,4a4.476,4.476,0,0,0-1.405.335h-.006c-.429.17-2.469,1.029-5.567,2.328L20.136,11.34C12.164,14.7,4.328,18,4.328,18l.094-.035a4.826,4.826,0,0,0-1.105.564,3.054,3.054,0,0,0-.882.853,2.5,2.5,0,0,0-.417,1.669,3.029,3.029,0,0,0,1.346,2.1,4.471,4.471,0,0,0,1,.535h.012l7.348,2.475c.329,1.058,2.24,7.337,2.7,8.783a5.387,5.387,0,0,0,.864,1.816,2.127,2.127,0,0,0,.57.529,1.686,1.686,0,0,0,.276.129.253.253,0,0,0,.094.029l-.076-.018a.534.534,0,0,1,.059.029,1.167,1.167,0,0,0,.176.035,2.489,2.489,0,0,0,2.1-.37l.053-.041,4.338-3.95,7.272,5.579.165.071a3.862,3.862,0,0,0,3.862-.359,3.936,3.936,0,0,0,1.135-1.5l.053-.135L40.981,8A4.138,4.138,0,0,0,41,5.978,2.719,2.719,0,0,0,39.829,4.4,2.817,2.817,0,0,0,38.224,4Zm-.153,3.086a.879.879,0,0,1-.029.265v.018L32.475,35.854a.64.64,0,0,1-.176.217c-.118.094-.212.153-.7-.041L22.7,29.211l-5.373,4.9L18.46,26.9,32.992,13.356c.6-.558.4-.676.4-.676.041-.682-.905-.2-.905-.2L14.163,23.832l-.006-.029L5.374,20.845V20.84c-.006,0-.018-.006-.024-.006a.405.405,0,0,0,.047-.018l.047-.023.047-.018,15.814-6.66c3.992-1.681,8.013-3.374,11.1-4.679s5.379-2.252,5.508-2.3S37.983,7.083,38.071,7.083Z" transform="translate(904.051 840.603)" fill="#fff"/>
  </g>
</svg>
