<svg xmlns="http://www.w3.org/2000/svg" width="92.536" height="89.355" viewBox="0 0 92.536 89.355">
  <g id="twitter" transform="translate(-981.464 -818.263)">
    <g id="Group_8" data-name="Group 8">
      <path id="Polygon_2" data-name="Polygon 2" d="M51.525,0a3,3,0,0,1,2.593,1.491l16,27.5a3,3,0,0,1,0,3.018l-16,27.5A3,3,0,0,1,51.525,61H19.475a3,3,0,0,1-2.593-1.491l-16-27.5a3,3,0,0,1,0-3.018l16-27.5A3,3,0,0,1,19.475,0Z" transform="matrix(0.848, 0.53, -0.53, 0.848, 1013.789, 818.263)" fill="#1d524c"/>
    </g>
    <path id="icons8_twitter_5" d="M40.118,9.726a14.767,14.767,0,0,1-4.256,1.164,7.435,7.435,0,0,0,3.257-4.1,14.93,14.93,0,0,1-4.7,1.8,7.411,7.411,0,0,0-12.821,5.067,7.246,7.246,0,0,0,.194,1.687A21.005,21.005,0,0,1,6.516,7.6,7.414,7.414,0,0,0,8.809,17.5a7.368,7.368,0,0,1-3.357-.929v.094A7.407,7.407,0,0,0,11.4,23.929a7.376,7.376,0,0,1-1.952.265,7.224,7.224,0,0,1-1.393-.135,7.423,7.423,0,0,0,6.919,5.15,14.862,14.862,0,0,1-9.2,3.169A14.692,14.692,0,0,1,4,32.271,20.955,20.955,0,0,0,15.358,35.6c13.633,0,21.087-11.293,21.087-21.087,0-.317-.012-.641-.023-.958A15.179,15.179,0,0,0,40.118,9.726Z" transform="translate(1006.053 840.141)" fill="#fff"/>
  </g>
</svg>
