<svg xmlns="http://www.w3.org/2000/svg" width="92.536" height="89.355" viewBox="0 0 92.536 89.355">
  <g id="whatsapp" transform="translate(-781.464 -818.263)">
    <g id="Group_6" data-name="Group 6">
      <path id="Polygon_4" data-name="Polygon 4" d="M51.525,0a3,3,0,0,1,2.593,1.491l16,27.5a3,3,0,0,1,0,3.018l-16,27.5A3,3,0,0,1,51.525,61H19.475a3,3,0,0,1-2.593-1.491l-16-27.5a3,3,0,0,1,0-3.018l16-27.5A3,3,0,0,1,19.475,0Z" transform="matrix(0.848, 0.53, -0.53, 0.848, 813.789, 818.263)" fill="#1d524c"/>
    </g>
    <path id="icons8_whatsapp_3" d="M34.857,9.273A17.986,17.986,0,0,0,6.551,30.965L4,40.283l9.535-2.5a18,18,0,0,0,8.595,2.193h.006a17.987,17.987,0,0,0,12.721-30.7ZM22.136,36.932H22.13a14.946,14.946,0,0,1-7.607-2.081l-.547-.323L8.315,36.009,9.826,30.5l-.353-.564a14.946,14.946,0,1,1,12.663,7Zm8.195-11.193c-.447-.223-2.657-1.311-3.069-1.458s-.711-.223-1.011.223-1.158,1.464-1.423,1.764-.523.335-.97.112a12.157,12.157,0,0,1-3.615-2.234,13.45,13.45,0,0,1-2.5-3.11c-.265-.453-.029-.694.194-.917.206-.2.453-.523.676-.788a3.122,3.122,0,0,0,.453-.747.837.837,0,0,0-.041-.788c-.112-.223-1.011-2.44-1.387-3.339-.364-.876-.735-.752-1.011-.77-.259-.012-.558-.012-.858-.012a1.645,1.645,0,0,0-1.2.564A5.027,5.027,0,0,0,13,17.985a8.765,8.765,0,0,0,1.834,4.65c.223.294,3.169,4.832,7.678,6.778a24.926,24.926,0,0,0,2.557.946,6.249,6.249,0,0,0,2.833.182c.864-.129,2.657-1.087,3.033-2.14a3.776,3.776,0,0,0,.259-2.134C31.083,26.08,30.783,25.969,30.331,25.739Z" transform="translate(805.053 839.451)" fill="#fff" fill-rule="evenodd"/>
  </g>
</svg>
